<svg xmlns="http://www.w3.org/2000/svg" width="225" height="82" viewBox="0 0 225 82" fill="none"><g clip-path="url(#clip0_211_1354)"><path d="M63.3781 27.1976C63.3781 19.1203 68.7629 13.6504 76.62 13.6504C83.6563 13.6504 88.2154 18.0344 88.9511 24.7654L82.9156 25.7663C82.3101 21.6826 80.2682 19.2955 76.4448 19.2955C71.9307 19.2955 69.6287 22.8537 69.6287 27.1976C69.6287 32.102 71.9307 35.3149 76.4898 35.3149C80.3533 35.3149 82.22 32.8377 82.9607 28.5838L88.911 29.4546C88.2154 36.1857 83.4811 40.9199 76.5349 40.9199C68.4576 40.9199 63.3781 35.3199 63.3781 27.1976Z" fill="#EFF4D4"></path><path d="M90.5171 40.3094V19.7309H96.4675V27.0675H96.5525C97.5534 20.8169 99.245 19.7309 102.113 19.7309H103.113V26.507H100.856C97.5134 26.507 96.4725 27.4178 96.4725 30.5006V40.3144H90.5221L90.5171 40.3094Z" fill="#EFF4D4"></path><path d="M103.544 30.4505C103.544 23.3291 107.492 19.1604 114.183 19.1604C120.524 19.1604 123.607 23.199 123.607 28.799C123.607 29.7099 123.607 30.4055 123.522 31.5365H109.454C109.844 34.4892 111.406 35.7903 114.188 35.7903C116.971 35.7903 117.836 34.4441 118.312 32.8377L123.436 34.269C122.436 38.0023 119.743 40.8699 114.103 40.8699C107.892 40.8699 103.554 37.3117 103.554 30.4505H103.544ZM109.494 28.1935H118.177C118.002 25.456 116.655 24.0698 114.008 24.0698C111.361 24.0698 109.884 25.2859 109.494 28.1935Z" fill="#EFF4D4"></path><path d="M137.545 35.2699H137.459C136.549 38.788 134.292 40.7398 130.813 40.7398C127.335 40.7398 124.563 38.788 124.563 34.7494C124.563 31.016 126.775 28.4537 132.205 28.4537H137.545V27.5829C137.545 25.371 136.589 24.1549 134.332 24.1549C132.38 24.1549 131.119 25.0256 130.728 27.4128L125.168 26.6321C125.689 22.3332 128.206 19.2505 134.592 19.2505C140.978 19.2505 143.45 22.2882 143.45 27.5429V40.3094H137.545V35.2749V35.2699ZM137.545 32.4073V31.8017H133.116C131.379 31.8017 130.338 32.5824 130.338 33.7135C130.338 34.9746 131.119 35.9705 133.376 35.9705C135.893 35.9705 137.545 34.4942 137.545 32.4073Z" fill="#EFF4D4"></path><path d="M142.585 14.256H163.819V20.1613H156.352V40.3094H150.101V20.1613H142.59V14.256H142.585Z" fill="#EFF4D4"></path><path d="M162.647 30.4505C162.647 23.3291 166.596 19.1604 173.287 19.1604C179.627 19.1604 182.71 23.199 182.71 28.799C182.71 29.7099 182.71 30.4055 182.625 31.5365H168.557C168.948 34.4892 170.509 35.7903 173.292 35.7903C176.074 35.7903 176.94 34.4441 177.415 32.8377L182.54 34.269C181.539 38.0023 178.847 40.8699 173.207 40.8699C166.996 40.8699 162.657 37.3117 162.657 30.4505H162.647ZM168.593 28.1935H177.275C177.1 25.456 175.754 24.0698 173.107 24.0698C170.459 24.0698 168.983 25.2859 168.593 28.1935Z" fill="#EFF4D4"></path><path d="M194.125 24.5452C191.478 24.5452 189.566 26.1967 189.566 29.9701C189.566 33.7435 191.388 35.4851 194.17 35.4851C196.953 35.4851 197.948 33.6184 198.469 31.011L204.159 32.097C203.463 37.4818 200.471 40.9099 194.305 40.9099C187.794 40.9099 183.495 37.2616 183.495 30.1402C183.495 23.0188 187.709 19.1554 194.175 19.1554C200.641 19.1554 203.338 22.3232 204.164 27.8382L198.434 28.6639C197.953 26.2768 196.782 24.5402 194.135 24.5402L194.125 24.5452Z" fill="#EFF4D4"></path><path d="M211.711 40.3094H205.76V13.6904H211.711V25.5011H211.756C212.712 20.7668 215.184 19.1604 218.487 19.1604C222.961 19.1604 224.828 22.113 224.828 26.542V40.3044H218.922V28.2335C218.922 26.1066 217.966 24.5002 215.494 24.5002C213.022 24.5002 211.716 25.8914 211.716 28.2335V40.3044L211.711 40.3094Z" fill="#EFF4D4"></path><path d="M66.6508 63.9857V69.3956H64.5339V55.5831H73.7221V57.5149H66.6558V62.144H72.9665V63.9857H66.6558H66.6508Z" fill="#EFF4D4"></path><path d="M85.6882 63.9156H82.7405V69.3956H80.6236V55.5831H86.1936C89.6017 55.5831 91.1231 57.0545 91.1231 59.6368C91.1231 61.8237 89.947 63.25 87.8101 63.7355L91.9288 69.1453V69.4006H89.4866L85.6882 63.9206V63.9156ZM82.7405 57.3797V62.099H85.9885C87.9452 62.099 89.0262 61.3183 89.0262 59.6818C89.0262 58.1404 88.2655 57.3797 86.0085 57.3797H82.7405Z" fill="#EFF4D4"></path><path d="M97.9337 62.4643C97.9337 58.1604 100.441 55.3029 104.77 55.3029C109.099 55.3029 111.606 58.1554 111.606 62.4643C111.606 66.7732 109.164 69.6708 104.77 69.6708C100.376 69.6708 97.9337 66.7482 97.9337 62.4643ZM109.514 62.4443C109.514 59.3115 107.993 57.1695 104.77 57.1695C101.547 57.1695 100.026 59.3115 100.026 62.4443C100.026 65.5771 101.497 67.8291 104.77 67.8291C108.043 67.8291 109.514 65.6672 109.514 62.4443Z" fill="#EFF4D4"></path><path d="M123.237 62.5344C122.386 61.0631 121.42 59.0563 120.724 57.4898L120.239 57.5149C120.379 59.4716 120.469 62.2792 120.469 64.2359V69.3956H118.487V55.5831H121.55L125.118 61.5685C126.224 63.4352 127.28 65.6422 127.926 67.1635H128.361C128.246 65.2518 128.131 62.6995 128.131 60.7628V55.5831H130.113V69.3956H127.305L123.232 62.5344H123.237Z" fill="#EFF4D4"></path><path d="M136.608 55.5831H147.658V57.5149H143.194V69.3956H141.077V57.5149H136.608V55.5831Z" fill="#EFF4D4"></path><path d="M154.15 69.3956V55.5831H156.267V69.3956H154.15Z" fill="#EFF4D4"></path><path d="M163.958 55.5831H173.556V57.4498H166.075V61.4534H172.796V63.2951H166.075V67.5289H173.536V69.3956H163.958V55.5831Z" fill="#EFF4D4"></path><path d="M185.919 63.9156H182.971V69.3956H180.854V55.5831H186.424C189.832 55.5831 191.349 57.0545 191.349 59.6368C191.349 61.8237 190.173 63.25 188.036 63.7355L192.159 69.1453V69.4006H189.717L185.919 63.9206V63.9156ZM182.971 57.3797V62.099H186.219C188.176 62.099 189.257 61.3183 189.257 59.6818C189.257 58.1404 188.496 57.3797 186.239 57.3797H182.971Z" fill="#EFF4D4"></path><path d="M197.96 65.0917L199.961 64.6563C200.352 66.8182 201.643 67.9242 204.015 67.9242C206.202 67.9242 207.168 67.0735 207.168 65.7823C207.168 64.4911 206.292 63.8005 203.53 63.3201C199.756 62.6545 198.535 61.2482 198.535 59.1513C198.535 56.8042 200.237 55.3079 203.625 55.3079C207.013 55.3079 208.414 56.9444 208.945 59.4066L206.848 59.8219C206.432 57.9803 205.672 57.0344 203.535 57.0344C201.553 57.0344 200.632 57.7951 200.632 59.0362C200.632 60.1873 201.278 60.968 204.29 61.5235C208.294 62.2842 209.285 63.7104 209.285 65.6472C209.285 68.0894 207.718 69.6758 203.945 69.6758C199.986 69.6508 198.325 67.7641 197.96 65.0917Z" fill="#EFF4D4"></path><path d="M47.1328 1.12415L46.9527 1.01405C44.7257 -0.377203 41.783 0.353454 40.4668 2.6305L24.6476 41.025L48.5241 7.65502C49.9904 5.47306 49.3598 2.51039 47.1278 1.11914L47.1328 1.12415Z" fill="#EFF4D4"></path><path d="M25.062 6.519L25.2722 6.50899C27.8996 6.4139 30.0815 8.51579 30.0866 11.1432L24.6517 41.015L20.593 11.4885C20.4078 8.86611 22.4347 6.61408 25.062 6.519Z" fill="#EFF4D4"></path><path d="M7.66755 19.5557L7.82769 19.4156C9.79947 17.679 12.8222 17.9293 14.4887 19.9611L24.6628 41.01L7.35227 26.2317C5.55065 24.32 5.69578 21.2923 7.66755 19.5557Z" fill="#EFF4D4"></path><path d="M3.49359 40.8649V40.6547C3.55864 38.0273 5.78064 35.9705 8.403 36.1206L24.7127 41.0401L8.18781 45.6142C5.56044 45.6442 3.42853 43.4923 3.48858 40.8649H3.49359Z" fill="#EFF4D4"></path><path d="M2.18636 80.8809L2.36652 80.991C4.59353 82.3822 7.53617 81.6516 8.85236 79.3745L24.6716 40.98L0.790106 74.345C-0.676213 76.5269 -0.045646 79.4896 2.18636 80.8809Z" fill="#EFF4D4"></path><path d="M24.2558 75.481L24.0456 75.491C21.4183 75.5861 19.2363 73.4842 19.2313 70.8569L24.6662 40.985L28.7248 70.5115C28.91 73.1339 26.8832 75.3859 24.2558 75.481Z" fill="#EFF4D4"></path><path d="M41.6472 62.4443L41.4871 62.5844C39.5153 64.321 36.4926 64.0707 34.8261 62.0389L24.6519 40.99L41.9625 55.7683C43.7641 57.68 43.619 60.7077 41.6472 62.4443Z" fill="#EFF4D4"></path><path d="M45.8213 41.1401V41.3503C45.7563 43.9777 43.5343 46.0345 40.9119 45.8844L24.6023 40.965L41.1271 36.3909C43.7545 36.3608 45.8864 38.5128 45.8264 41.1401H45.8213Z" fill="#EFF4D4"></path></g><defs><clipPath id="clip0_211_1354"><rect width="224.822" height="81.3932" fill="white" transform="translate(0 0.303402)"></rect></clipPath></defs></svg>