<?xml version="1.0" encoding="UTF-8" standalone="no"?>
<svg xmlns:rdf="http://www.w3.org/1999/02/22-rdf-syntax-ns#" xmlns="http://www.w3.org/2000/svg" xmlns:cc="http://creativecommons.org/ns#" xmlns:dc="http://purl.org/dc/elements/1.1/" xml:space="preserve" viewBox="0 0 720 184" version="1.1">
  <title>SIGCHI Logo</title>
  <defs/>
  <metadata>
    <rdf:RDF>
      <cc:Work rdf:about="">
        <dc:format>image/svg+xml</dc:format>
        <dc:type rdf:resource="http://purl.org/dc/dcmitype/StillImage"/>
        <dc:title>SIGCHI Logo</dc:title>
        <dc:date>2017-08-31</dc:date>
        <dc:contributor>
          <cc:Agent>
            <dc:title>http://mro.name/~me</dc:title>
          </cc:Agent>
        </dc:contributor>
        <dc:subject>
          <rdf:Bag>
            <rdf:li>Logo</rdf:li>
            <rdf:li>SIGCHI</rdf:li>
            <rdf:li>ACM</rdf:li>
          </rdf:Bag>
        </dc:subject>
        <dc:source>http://identitystandards.acm.org/sigs/sigchi-logo-full.ai</dc:source>
        <cc:license rdf:resource="http://creativecommons.org/publicdomain/zero/1.0/"/>
      </cc:Work>
      <cc:License rdf:about="http://creativecommons.org/publicdomain/zero/1.0/">
        <cc:permits rdf:resource="http://creativecommons.org/ns#Reproduction"/>
        <cc:permits rdf:resource="http://creativecommons.org/ns#Distribution"/>
        <cc:permits rdf:resource="http://creativecommons.org/ns#DerivativeWorks"/>
      </cc:License>
    </rdf:RDF>
  </metadata>
  <path fill="#191919" d="M665.49 143.917c-.24.226-.367.453-.527.48-3.372.563-6.772.025-10.33.326-.447-.445-.925-.924-1.296-1.297v-44.14c-.295-.273-.58-.537-.88-.817h-43.364c-.24.212-.53.47-.85.757v44.377c-.476.804-1.07 1.078-1.964 1.06-3.123-.065-6.245-.025-9.383-.025-.54-.397-1.063-.783-.967-1.62.08-.675.014-1.365.014-2.048V49.626c.413-.712.995-1.008 1.895-.99 3.12.06 6.242.023 9.436.023l.865.764V86.1c.515 1.335 1.53 1.17 2.505 1.168 9.952-.008 19.904-.004 29.855-.004h12.502c.59-.806.326-1.61.327-2.355.017-11.124.003-22.246.025-33.37.003-.912-.403-1.98.635-2.667 5.02-.54 9.866-.357 11.5.488v94.557z"/>
  <path fill="#181818" d="M557.665 125.855v13.483c-1.702 1.694-4.217 2.54-6.643 3.556-2.95 1.232-6.08 1.833-9.12 2.748-.18.054-.356.15-.537.16-4.042.173-8.08 1.168-12.114.552-2.807-.43-5.69-.28-8.433-1.126-2.583-.797-5.314-1.304-7.71-2.487-2.672-1.322-5.445-2.493-7.942-4.2-4.342-2.97-8.118-6.57-11.56-10.48-3.64-4.133-6.374-8.94-8.18-14.126-1.355-3.886-2.316-7.918-2.652-12.104-.16-1.99-.392-3.98-.42-5.986-.032-2.2.517-4.308.958-6.438.175-.838-.012-1.756.19-2.583.58-2.356 1.06-4.773 1.98-7 1.394-3.377 2.794-6.758 4.902-9.823 3.555-5.172 7.7-9.636 12.76-13.454 4.516-3.41 9.394-5.8 14.69-7.448 4.055-1.262 8.174-2.392 12.51-2.242 2.048.07 4.098-.004 6.148.016 2.374.022 4.664.373 7.02.9 2.656.59 5.315 1.268 7.833 2.16 2.226.786 4.527 1.807 6.47 3.67 0 4.285-.002 8.705 0 13.553-1.912-1.26-3.282-2.404-4.775-3.366-3.43-2.21-7.19-3.452-11.023-4.753-5.357-1.815-10.728-.957-16.074-.903-2.318.024-4.61 1.38-6.938 2.05-2.818.812-5.298 2.43-7.667 3.946-2.537 1.625-5.05 3.624-6.926 6.117-2.207 2.935-4.46 5.853-5.93 9.277-1.52 3.54-2.723 7.123-3.402 10.964-.547 3.102-.61 6.168-.383 9.205.278 3.727 1.152 7.377 2.42 10.966 1.635 4.62 4.32 8.558 7.276 12.307 2.31 2.93 5.318 5.19 8.59 7.08 2.772 1.606 5.603 2.83 8.76 3.617 5.54 1.383 8.88 2.16 13.832 1.577 2.87-.338 5.768-.782 8.535-1.762 4.658-1.645 8.835-4.104 12.61-7.273.196-.167.508-.194.948-.35M444.23 70.056c-1.197 1.18-2.372 2.593-4.275 3.273-1.167-1.087-2.075-2.436-3.15-3.625-3.365-3.715-6.878-7.28-11.2-9.98-2.897-1.806-5.993-3.14-9.105-4.434-1.345-.56-3.03-.224-4.065-1.213-3.725-.387-7.247-.842-10.827-.833-3.957.008-7.79.792-11.44 1.98-5.01 1.632-9.554 4.327-13.764 7.597-3.69 2.87-6.645 6.344-9.364 10.07-2.223 3.048-3.862 6.48-5.09 9.968-1.208 3.428-2.286 7.023-2.09 10.813.127 2.434.14 4.885-.003 7.316-.117 1.96 1.115 3.712.73 5.295 4.778 16.56 15.33 27.136 31.57 32.43 2.513.373 5.325.686 8.12 1.19 1.7.31 3.633.462 5.226-.05 2.13-.68 4.304-.268 6.45-.92 1.764-.536 3.634-1.008 5.32-1.682 3.54-1.414 6.973-3.095 10.196-5.247 4.965-3.315 8.886-7.495 11.868-12.62.334-2.424 2.056-4.396 2.11-6.978.017-.977.85-2.07.967-3.157.165-1.54.04-3.11.04-4.67-.062-.067-.122-.148-.198-.205-.072-.054-.162-.114-.243-.114-10.832-.005-21.663-.005-32.672-.005-1.657-1.647-.493-3.736-.888-5.847 2.442 0 4.662-.002 6.88 0h6.733l6.733-.002h6.733c2.245 0 4.492-.07 6.733.02 2.162.09 4.4-.415 6.612.416.247 5.333-.62 10.332-1.262 15.683-.843 2.097-1.648 4.608-2.822 6.932-3.234 6.4-7.687 11.782-13.86 15.578-3.272 2.01-6.506 4.084-10.198 5.315-2.84.945-5.684 1.802-8.633 2.397-3.48.7-6.934 1.22-10.495 1.088-5.906-.22-11.52-1.61-17.03-3.69-4.092-1.548-7.794-3.775-11.244-6.332-3.767-2.792-7.247-5.943-9.96-9.907-1.707-2.493-3.554-4.916-4.85-7.624-1.693-3.53-3.433-7.108-3.838-11.084-.08-.802-.458-1.44-.65-2.154-.695-2.567-.54-5.16-.53-7.75.016-3.336-.39-6.733 1.132-9.902-.15-4.018 1.755-7.503 3.243-10.993 1.228-2.883 2.74-5.74 4.9-8.196 1.762-2.002 3.2-4.287 5.142-6.163 3.655-3.53 7.626-6.74 12.127-8.994 4.054-2.032 8.35-3.65 12.93-4.49 4.178-.762 8.343-1.37 12.55-1.02 4.024.334 8.02.822 11.97 2 4.388 1.308 8.382 3.305 12.233 5.62 2.19 1.32 4.203 3.003 6.092 4.742 2.853 2.62 5.625 5.34 7.957 8.465.3.402.59.763.45 1.7M208.306 124.93c1.58-.455 2.853-1.715 4.69-1.992 1.47.778 1.516 2.512 2.21 3.748 2.187 3.888 4.79 7.358 8.61 9.71 1.876 1.156 3.796 2.43 6.082 2.65 3.06.292 6.082 1.705 9.207.37 2.848.193 5.355-.87 7.852-2.055 6.116-2.907 9.902-7.8 12.14-14.046.553-1.543.78-3.123.726-4.762-.047-1.46-.01-2.925-.01-4.224-.3-.666-.554-1.17-.758-1.694-1.867-4.813-5.682-7.665-9.943-10.182-4.933-2.913-10.21-5.15-15.178-7.975-3.172-1.807-6.402-3.513-9.604-5.252-4.178-2.27-7.046-5.23-8.674-8.315-2.065-3.913-2.66-8.756-1.667-13.235.203-.93.002-1.946.197-2.88.475-2.276 3.247-7.212 4.84-9.094 3.1-3.664 6.97-6.222 11.58-7.328 3.68-.882 7.433-1.403 11.32-.53 2.21.496 4.35.917 6.49 1.772 2.313.923 4.432 2.092 6.272 3.637 2.358 1.98 4.546 4.198 6.225 6.833.137.215.066.563.107 1.018-1.1 1.34-2.56 2.266-4.302 3.04-1.126-1.974-2.66-3.3-4-4.8-2.287-2.556-5.198-4.268-8.347-5.173-4.515-1.298-9.138-1.438-13.695.427-3.91 1.6-6.598 4.47-8.85 7.836-.818 1.224-.858 2.865-1.782 4.092-.28 1.39.378 2.92-.65 4.24.822 1.494.492 3.157.645 4.99 1.17 1.006 1.51 2.734 2.56 4.122 1.487 1.968 3.3 3.32 5.304 4.62 3.08 1.997 6.4 3.505 9.653 5.157 5.668 2.882 11.286 5.858 16.94 8.765 2.185 1.122 3.834 2.864 5.524 4.564 1.612 1.62 3 3.293 3.977 5.493 2.364 5.33 2.77 8.885 1.6 14.313-.465 2.166-1.134 4.324-2.2 6.325-2.125 3.992-4.667 7.61-8.475 10.213-3.03 2.07-6.135 3.97-9.7 4.977-3.958 1.12-8.023 2.107-12.105 1.424-4.787-.8-9.49-1.965-13.535-5.08-4.88-3.758-8.665-8.29-11.224-13.865-.115-.25-.104-.565-.113-.85s.033-.576.06-1M720.003 143.643c-.548.95-1.174 1.01-1.897 1.003-3.12-.03-6.24-.013-9.386-.013-.568-.358-1.058-.78-.96-1.602.055-.48.008-.973.008-1.46V49.6c.452-.774 1.004-.976 1.768-.967 3.208.04 6.42.018 9.653.018.298.278.582.54.813.754v94.24z"/>
  <path fill="#1a1a1b" d="M307.3 49.345c1.51-1.35 3.26-.338 4.8-.754l.954.833v94.352c-.11.314-.52.576-.992.912-1.48-.392-3.22.597-4.762-.733v-94.61z"/>
  <path fill="#97979f" d="M175.866 112.027c-6.026-19.032-50.124-22.044-98.498-6.73C28.994 120.614-5.336 148.458.69 167.49c6.025 19.032 50.125 22.043 98.498 6.728 48.376-15.316 82.707-43.16 76.68-62.19"/>
  <path fill="#fff" d="M157.304 116.162c-4.727-14.933-39.327-17.296-77.28-5.28-37.952 12.016-64.886 33.862-60.158 48.793 4.727 14.932 39.327 17.296 77.28 5.28 37.957-12.016 64.89-33.86 60.163-48.793"/>
  <path fill="#e9a038" d="M88.39 1.14s6.102 2.128 5.575 8.09c-.526 5.964-4.734 17.187-8.944 17.187-4.207 0-6.966-6.66-5.962-16.836 1.04-10.52 9.33-8.44 9.33-8.44"/>
  <path fill="#e9a038" d="M57.56 8.224S71.333 28.707 81.222 31.18c13.884 3.47 50.502-8.476 50.502-8.476l-28.53 17.83S92.17 46.01 94.642 61.55c2.472 15.54 25.074 89.612 25.074 89.612s-19.068-39.098-31.077-49.873c-11.4-10.227-15.54-3.716-15.54-3.716S59.68 111.7 57.56 138.54c0 0-.353-21.528 1.767-37.25 2.118-15.724 10.313-53.887 9.534-56.337-7.332-23.076-8.31-26.102-8.31-26.102L57.56 8.225z"/>
</svg>
